<?xml version="1.0" encoding="UTF-8" standalone="no"?>
<svg
   id="emoji"
   viewBox="0 0 72 72"
   version="1.1"
   sodipodi:docname="logo.svg"
   inkscape:version="1.3.1 (91b66b0783, 2023-11-16)"
   inkscape:export-filename="1FAD8.png"
   inkscape:export-xdpi="256"
   inkscape:export-ydpi="256"
   xmlns:inkscape="http://www.inkscape.org/namespaces/inkscape"
   xmlns:sodipodi="http://sodipodi.sourceforge.net/DTD/sodipodi-0.dtd"
   xmlns="http://www.w3.org/2000/svg"
   xmlns:svg="http://www.w3.org/2000/svg">
  <defs
     id="defs9" />
  <sodipodi:namedview
     id="namedview9"
     pagecolor="#ffffff"
     bordercolor="#000000"
     borderopacity="0.25"
     inkscape:showpageshadow="2"
     inkscape:pageopacity="0.0"
     inkscape:pagecheckerboard="0"
     inkscape:deskcolor="#d1d1d1"
     inkscape:zoom="16.291667"
     inkscape:cx="36"
     inkscape:cy="36"
     inkscape:window-width="2560"
     inkscape:window-height="1369"
     inkscape:window-x="-8"
     inkscape:window-y="-8"
     inkscape:window-maximized="1"
     inkscape:current-layer="emoji" />
  <g
     id="color"
     transform="matrix(1.156079,0,0,1.1679126,-10.30544,-5.5676794)">
    <path
       fill="#781e32"
       d="m 17.7119,48.208 c -0.0306,1.3988 0.3147,2.7802 1,4 0.7372,1.2322 1.7678,2.2628 3,3 1.5312,0.9652 3.2256,1.643 5,2 2.5846,0.8127 5.2949,1.1514 8,1 C 36.5321,58.1205 38.3224,57.7116 40,57 c 1.5442,-0.6728 3.782,-1.6478 5,-4 0.6662,-1.1446 0.9176,-2.4837 0.7119,-3.792 C 45.1873,46.5169 42.5266,45.2506 42,45 c -0.7106,-0.3382 -0.9245,-0.2982 -4.2881,-0.792 -2.7243,-0.4 -4.1609,-0.6074 -6,-1 -1.353,-0.249 -2.689,-0.583 -4,-1 -0.9741,-0.4066 -1.9768,-0.7408 -3,-1 C 23.839,40.9157 22.9073,40.8442 22,41 c -1.49,0.397 -2.2889,1.7738 -3,3 -0.7977,1.2624 -1.2425,2.7154 -1.2881,4.208 z"
       id="path1" />
    <path
       fill="#781e32"
       d="m 13.9843,34.9863 c 0.9717,1.0167 2.2306,1.7126 3.6084,1.9948 1.4041,0.3005 2.8607,0.249 4.24,-0.15 1.7499,-0.4625 3.4008,-1.2403 4.8715,-2.2953 2.3057,-1.4091 4.3899,-3.152 6.1847,-5.1719 1.4591,-1.4394 2.6027,-3.1666 3.3581,-5.0719 0.7012,-1.5586 0.8873,-3.3001 0.5314,-4.9717 -0.4645,-1.692 -1.5208,-3.161 -2.9769,-4.14 -1.2198,-0.9464 -2.7519,-1.3975 -4.29,-1.2631 -1.438,0.2319 -1.6972,1.037 -4.8214,3.7086 -1.5439,1.3164 -3.1531,2.5542 -4.8215,3.7086 -1.1046,0.8204 -2.2598,1.5704 -3.4586,2.2456 -1.6009,0.8546 -1.9906,0.8253 -2.7766,1.5135 -1.0872,0.9156 -1.7977,2.2007 -1.9947,3.6084 -0.0294,1.2215 0.2571,2.43 0.8318,3.5083 0.3158,1.0165 0.8304,1.9601 1.5138,2.7761 z"
       id="path3" />
    <path
       fill="#d22f27"
       d="M 13.9843,34.9863 C 12.473,31.1238 13.7527,28.154 17.5675,26.7104 21.3823,25.2668 23.4027,23.4493 25.5551,20.6911 29.1523,16.0818 32.3113,15.4401 37,18 l -4.6097,-3.8192 -4.1127,0.3393 -6.8732,5.7156 -8.9921,6.2895 0.0582,5.685 z"
       id="path4" />
    <path
       fill="#d22f27"
       d="m 44.8063,53.35 c -2.5538,-8.0277 -8.8171,-5.4663 -13.746,-6.9135 -5.9141,-1.7364 -6.7646,-4.289 -13.4928,0.4081 l 3.9915,-5.9249 h 5.2243 l 4.7483,3.499 L 40.293,44.12 45,47.008 Z"
       id="path6" />
  </g>
  <g
     id="line"
     transform="matrix(1.156079,0,0,1.1679126,-10.30544,-5.5676794)">
    <path
       fill="none"
       stroke="#000000"
       stroke-linecap="round"
       stroke-miterlimit="10"
       stroke-width="2"
       d="m 22,41 c -1.5401,0.5536 -2.8303,1.6417 -3.6357,3.0664 -0.7139,1.3652 -0.9574,2.9278 -0.6928,4.4455 0.1779,1.247 0.6317,2.4387 1.3285,3.4881 2.0319,3.2278 5.3827,4.4231 7,5 1.6129,0.561 3.2954,0.8975 5,1 2.3868,0.2048 6.9232,0.5352 11,-2 1.2867,-0.665 2.335,-1.7133 3,-3 0.6609,-1.6012 0.6609,-3.3988 0,-5 -0.389,-1.1558 -1.1211,-2.1654 -2.0988,-2.8943 -0.9191,-0.599 -1.9745,-0.9562 -3.0685,-1.0386 -2.0572,-0.3135 -2.7555,0.1392 -5.0143,0.0571 -1.2715,-0.0193 -2.5342,-0.2136 -3.7527,-0.5774 -3.0361,-0.95 -3.33,-2.4569 -5.8888,-2.8289 C 24.1105,40.5601 23.0219,40.6568 22,41 Z"
       id="path8" />
    <path
       fill="none"
       stroke="#000000"
       stroke-linecap="round"
       stroke-miterlimit="10"
       stroke-width="2"
       d="m 12.7,26.9745 c 1.7582,-3.6039 5.3112,-3.1906 9.58,-7.0912 2.7013,-2.4686 2.8583,-4.0782 5.6126,-5.2025 1.407,-0.644 2.9836,-0.8193 4.4977,-0.5 C 34.443,14.6561 36.1513,16.0715 37,18 38.1162,20.7423 36.6863,23.4373 35.6016,25.4819 34.651,27.1712 33.4349,28.6968 32,30 c -1.4793,1.552 -3.1611,2.8975 -5,4 -2.6292,1.5406 -6.3325,3.7106 -9.989,2.43 C 15.5297,35.882 14.2429,34.9093 13.3117,33.6336 11.8159,31.7274 11.5765,29.1213 12.7,26.9745 Z"
       id="path9" />
    <g
       id="color-1"
       transform="matrix(-0.72524945,0,0,-0.72524945,79.47225,56.261797)">
      <g
         id="g2">
        <path
           fill="#d22f27"
           d="m 25.942,31.2662 c -1.6653,-1.6314 -2.8128,-3.7174 -3.2992,-5.9974 -0.4464,-2.2508 -0.2846,-4.9334 2.1864,-6.5942 0,0 10.4386,-7.3873 19.5924,0 0,0 11.081,6.8252 9.3948,24.6511 0,0 -0.1606,12.2855 -12.687,12.4461 0,0 -6.1828,1.5256 -6.8252,-8.5918 0.0609,-0.9424 0.059,-1.8878 -0.0055,-2.83 -0.2494,-3.8546 -2.0436,-7.4455 -4.9764,-9.9593 -1.0276,-0.8832 -2.2367,-1.9723 -3.3803,-3.1245 z"
           id="path1-6" />
      </g>
      <g
         id="g3">
        <path
           fill="#d22f27"
           d="m 25.942,31.2662 c -1.6653,-1.6314 -2.8128,-3.7174 -3.2992,-5.9974 -0.4464,-2.2508 -0.2846,-4.9334 2.1864,-6.5942 0,0 10.4386,-7.3873 19.5924,0 0,0 11.081,6.8252 9.3948,24.6511 0,0 -0.1606,12.2855 -12.687,12.4461 0,0 -6.1828,1.5256 -6.8252,-8.5918 0.0609,-0.9424 0.059,-1.8878 -0.0055,-2.83 -0.2494,-3.8546 -2.0436,-7.4455 -4.9764,-9.9593 -1.0276,-0.8832 -2.2367,-1.9723 -3.3803,-3.1245 z"
           id="path2" />
      </g>
    </g>
    <g
       id="line-4"
       transform="matrix(-0.72524945,0,0,-0.72524945,79.47225,56.261797)">
      <path
         fill="none"
         stroke="#000000"
         stroke-miterlimit="10"
         stroke-width="2"
         d="m 25.942,31.2662 c -1.6653,-1.6314 -2.8128,-3.7174 -3.2992,-5.9974 -0.4464,-2.2508 -0.2846,-4.9334 2.1864,-6.5942 0,0 10.4386,-7.3873 19.5924,0 0,0 11.081,6.8252 9.3948,24.6511 0,0 -0.1606,12.2855 -12.687,12.4461 0,0 -6.1828,1.5256 -6.8252,-8.5918 0.0609,-0.9424 0.059,-1.8878 -0.0055,-2.83 -0.2494,-3.8546 -2.0436,-7.4455 -4.9764,-9.9593 -1.0276,-0.8832 -2.2367,-1.9723 -3.3803,-3.1245 z"
         id="path3-8" />
      <path
         fill="none"
         stroke="#000000"
         stroke-linecap="round"
         stroke-linejoin="round"
         stroke-width="2"
         d="m 34.9867,29.073 c 0,0 -3.9033,1.592 -7.2512,0.4347"
         id="path4-9" />
      <path
         fill="none"
         stroke="#000000"
         stroke-linecap="round"
         stroke-linejoin="round"
         stroke-width="2"
         d="m 40.4068,43.4863 c 0,0 -6.9056,-0.8029 -9.6357,-3.8141 0,0 -3.3091,-3.739 -9.8363,0 l -6.7782,2.3365"
         id="path5" />
      <path
         fill="none"
         stroke="#000000"
         stroke-linecap="round"
         stroke-linejoin="round"
         stroke-width="2"
         d="m 36.7879,33.69 c -0.4326,0.3737 -0.7294,0.88 -0.8442,1.44 -0.1346,0.6446 -0.0589,1.3153 0.2161,1.9136 0.3386,0.7868 0.7848,2.5839 -0.3043,5.44"
         id="path6-5" />
      <path
         fill="none"
         stroke="#000000"
         stroke-linecap="round"
         stroke-linejoin="round"
         stroke-width="2"
         d="m 14.1566,42.0087 6.7782,-2.3365 c 0,0 5.6207,-2.2483 6.4237,-5.701 0,0 -0.3212,-6.0223 2.0877,-7.3071"
         id="path7" />
    </g>
  </g>
</svg>
